<mxfile host="app.diagrams.net" modified="2024-06-10T09:12:32.803Z" agent="Mozilla/5.0 (X11; Linux x86_64) AppleWebKit/537.36 (KHTML, like Gecko) Chrome/125.0.0.0 Safari/537.36" etag="W616NAoPFRecRs-pMTHT" version="24.5.2" type="github">
  <diagram name="Generator diagram" id="vbVYOfCvqIkkOX1ZHd7K">
    <mxGraphModel dx="1050" dy="565" grid="1" gridSize="10" guides="1" tooltips="1" connect="1" arrows="1" fold="1" page="1" pageScale="1" pageWidth="827" pageHeight="1169" math="0" shadow="0">
      <root>
        <mxCell id="0" />
        <mxCell id="1" parent="0" />
        <mxCell id="EMZJNkWI4Wdm-uDBj1kF-5" value="&lt;p style=&quot;margin:0px;margin-top:4px;text-align:center;&quot;&gt;&lt;i&gt;&amp;lt;&amp;lt;Interface&amp;gt;&amp;gt;&lt;/i&gt;&lt;br&gt;&lt;b&gt;ReportGeneratorInterface&lt;/b&gt;&lt;/p&gt;&lt;hr size=&quot;1&quot; style=&quot;border-style:solid;&quot;&gt;&lt;p style=&quot;margin:0px;margin-left:4px;&quot;&gt;&lt;br&gt;&lt;/p&gt;&lt;hr size=&quot;1&quot; style=&quot;border-style:solid;&quot;&gt;&lt;p style=&quot;margin:0px;margin-left:4px;&quot;&gt;+ generate(&lt;span style=&quot;font-weight: 700; text-align: center;&quot;&gt;ReportGenerationParams&lt;/span&gt;&lt;span style=&quot;font-weight: 700; text-align: center; background-color: initial;&quot;&gt;Dto&lt;/span&gt;&lt;span style=&quot;font-weight: 700; text-align: center; background-color: initial;&quot;&gt;&amp;nbsp;r&lt;/span&gt;&lt;span style=&quot;font-weight: 700; text-align: center;&quot;&gt;eportGenerationParams&lt;/span&gt;&lt;span style=&quot;background-color: initial;&quot;&gt;): void&lt;/span&gt;&lt;/p&gt;" style="verticalAlign=top;align=left;overflow=fill;html=1;whiteSpace=wrap;" vertex="1" parent="1">
          <mxGeometry x="40" y="80" width="480" height="170" as="geometry" />
        </mxCell>
        <mxCell id="EMZJNkWI4Wdm-uDBj1kF-6" value="ReportGenerationParams&lt;span style=&quot;background-color: initial;&quot;&gt;Dto&lt;/span&gt;" style="swimlane;fontStyle=1;align=center;verticalAlign=top;childLayout=stackLayout;horizontal=1;startSize=26;horizontalStack=0;resizeParent=1;resizeParentMax=0;resizeLast=0;collapsible=1;marginBottom=0;whiteSpace=wrap;html=1;" vertex="1" parent="1">
          <mxGeometry x="680" y="80" width="240" height="200" as="geometry" />
        </mxCell>
        <mxCell id="EMZJNkWI4Wdm-uDBj1kF-7" value="+ startDate: \DateTimeInterface&lt;div&gt;+ endDate: \DateTimeInterface&lt;/div&gt;&lt;div&gt;+ reportName: string&lt;br&gt;&lt;div&gt;&lt;br&gt;&lt;/div&gt;&lt;/div&gt;" style="text;strokeColor=none;fillColor=none;align=left;verticalAlign=top;spacingLeft=4;spacingRight=4;overflow=hidden;rotatable=0;points=[[0,0.5],[1,0.5]];portConstraint=eastwest;whiteSpace=wrap;html=1;" vertex="1" parent="EMZJNkWI4Wdm-uDBj1kF-6">
          <mxGeometry y="26" width="240" height="74" as="geometry" />
        </mxCell>
        <mxCell id="EMZJNkWI4Wdm-uDBj1kF-8" value="" style="line;strokeWidth=1;fillColor=none;align=left;verticalAlign=middle;spacingTop=-1;spacingLeft=3;spacingRight=3;rotatable=0;labelPosition=right;points=[];portConstraint=eastwest;strokeColor=inherit;" vertex="1" parent="EMZJNkWI4Wdm-uDBj1kF-6">
          <mxGeometry y="100" width="240" height="8" as="geometry" />
        </mxCell>
        <mxCell id="EMZJNkWI4Wdm-uDBj1kF-9" value="+ getStartDate(): \DateTimeInterface&lt;div&gt;+ getEndDate(): \DateTimeInterface&lt;br&gt;&lt;/div&gt;&lt;div&gt;+ getReportName(): string&lt;br&gt;&lt;/div&gt;" style="text;strokeColor=none;fillColor=none;align=left;verticalAlign=top;spacingLeft=4;spacingRight=4;overflow=hidden;rotatable=0;points=[[0,0.5],[1,0.5]];portConstraint=eastwest;whiteSpace=wrap;html=1;" vertex="1" parent="EMZJNkWI4Wdm-uDBj1kF-6">
          <mxGeometry y="108" width="240" height="92" as="geometry" />
        </mxCell>
        <mxCell id="EMZJNkWI4Wdm-uDBj1kF-10" value="" style="endArrow=diamondThin;endFill=1;endSize=24;html=1;rounded=0;exitX=1;exitY=0.75;exitDx=0;exitDy=0;" edge="1" parent="1" source="EMZJNkWI4Wdm-uDBj1kF-5" target="EMZJNkWI4Wdm-uDBj1kF-6">
          <mxGeometry width="160" relative="1" as="geometry">
            <mxPoint x="280" y="240" as="sourcePoint" />
            <mxPoint x="440" y="240" as="targetPoint" />
          </mxGeometry>
        </mxCell>
      </root>
    </mxGraphModel>
  </diagram>
</mxfile>
